<svg width="512" height="512" viewBox="0 0 512 512" fill="none" xmlns="http://www.w3.org/2000/svg">
<rect width="512" height="512" fill="white"/>
<path d="M256.05 90C163.79 90 89 164.79 89 257.05C89 341.388 151.499 411.118 232.708 422.466C232.642 422.126 232.609 421.752 232.631 421.379L242.157 259.245C242.267 257.468 241.158 255.854 239.49 255.251C239.457 255.24 239.435 255.229 239.413 255.218C237.186 254.406 234.738 255.624 234.124 257.906L205.283 365.531C203.868 370.821 197.042 372.171 193.662 367.858C178.517 348.521 172.328 322.545 179.176 296.997C185.201 274.489 200.148 256.765 219.199 246.592C221.251 245.495 221.986 242.905 220.724 240.951C220.713 240.918 220.691 240.896 220.68 240.863C219.363 238.811 216.543 238.383 214.699 239.985L128.003 315.346C124.26 318.605 118.433 316.257 117.917 311.307C114.976 282.752 125.522 253.264 148.832 232.995C169.134 215.348 195.001 208.281 219.737 211.288C220.757 211.408 221.789 211.024 222.425 210.212C222.447 210.19 222.458 210.168 222.48 210.146C224.049 208.171 222.689 205.263 220.165 205.263H162.901C157.008 205.263 153.792 198.338 157.633 193.861C169.112 180.483 186.144 172.011 205.163 172.011C224.181 172.011 241.202 180.483 252.681 193.872C252.681 193.872 252.685 193.875 252.692 193.883C253.515 194.837 254.668 195.441 255.919 195.43H256.171C257.433 195.441 258.586 194.837 259.398 193.883C259.398 193.883 259.405 193.879 259.42 193.872C270.888 180.483 287.92 172.011 306.938 172.011C325.957 172.011 342.989 180.483 354.468 193.861C358.309 198.338 355.093 205.263 349.2 205.263H291.936C289.412 205.263 288.051 208.171 289.621 210.146C289.632 210.168 289.654 210.19 289.676 210.212C290.312 211.024 291.333 211.408 292.364 211.288C317.1 208.281 342.967 215.348 363.258 232.995C386.579 253.264 397.125 282.752 394.184 311.307C393.668 316.257 387.841 318.605 384.087 315.346L297.391 239.985C295.558 238.383 292.737 238.811 291.421 240.863C291.41 240.896 291.388 240.918 291.377 240.951C290.115 242.905 290.85 245.495 292.902 246.592C311.942 256.765 326.9 274.489 332.925 296.997C339.773 322.545 333.584 348.521 318.439 367.858C315.059 372.171 308.233 370.821 306.807 365.531L277.977 257.906C277.363 255.624 274.915 254.406 272.687 255.218C272.666 255.229 272.633 255.24 272.611 255.251C270.932 255.854 269.834 257.468 269.944 259.245L279.47 421.379C279.492 421.752 279.459 422.126 279.393 422.466C360.602 411.118 423.101 341.388 423.101 257.05C423.101 164.79 348.311 90 256.05 90ZM256.05 162.705C256.05 147.472 243.693 135.126 228.472 135.126C243.704 135.126 256.05 122.769 256.05 107.548C256.05 122.78 268.397 135.126 283.629 135.126C268.397 135.126 256.05 147.483 256.05 162.705Z" fill="#FFD646"/>
</svg>
