<svg width="600" height="162" viewBox="0 0 600 162" fill="none" xmlns="http://www.w3.org/2000/svg">
<path d="M273.096 94.9262C273.502 94.5205 273.705 93.9119 274.111 93.709L298.456 110.548C287.298 126.98 266.604 136.11 246.723 133.27C235.767 131.849 225.218 127.183 217.306 119.88C197.627 101.824 193.367 68.3497 212.031 46.6421C221.769 35.484 236.782 28.5863 251.795 28.1805C251.795 28.1805 251.997 28.1805 252.2 28.1805C268.227 28.5863 284.457 36.0926 294.804 48.6709L271.676 67.5382L271.473 67.1324C263.967 58.6117 250.577 55.1628 240.231 61.452C233.942 65.1037 229.276 71.7985 229.276 79.102C229.073 88.4342 234.144 97.9693 243.477 101.824C253.62 105.881 265.996 104.461 273.096 94.9262Z" fill="#000000"/>
<path d="M346.505 26.3547C364.764 26.5575 382.414 36.9041 391.34 52.5255C403.919 74.233 399.658 104.461 379.776 122.111L379.371 122.314C363.547 135.298 339.405 138.138 320.334 127.183C301.264 116.228 290.309 92.2889 294.164 70.3784C298.424 46.4392 321.146 27.1662 345.491 26.5575C346.099 26.3547 346.302 26.3547 346.505 26.3547ZM360.503 99.5923C371.053 90.6659 372.473 70.7842 360.503 61.452C356.446 58.206 351.78 56.1772 346.302 55.9743C334.13 55.9743 322.972 67.5382 323.58 79.3049C324.189 92.086 332.507 104.461 347.519 104.461C351.983 104.461 357.055 102.433 360.503 99.5923Z" fill="#000000"/>
<path d="M474.489 94.9262C474.894 94.5205 475.097 93.9119 475.503 93.709L499.848 110.548C488.69 126.98 467.997 136.11 448.115 133.27C437.16 131.849 426.61 127.183 418.698 119.88C399.019 101.824 394.759 68.3497 413.424 46.6421C423.161 35.484 438.174 28.5863 453.187 28.1805C453.187 28.1805 453.39 28.1805 453.593 28.1805C469.62 28.5863 485.85 36.0926 496.196 48.6709L473.069 67.5382L472.866 67.1324C465.359 58.6117 451.97 55.1628 441.623 61.452C435.334 65.1037 430.668 71.7985 430.668 79.102C430.465 88.4342 435.537 97.9693 444.869 101.824C455.013 105.881 467.388 104.461 474.489 94.9262Z" fill="#000000"/>
<path d="M547.897 26.3547C566.156 26.5575 583.806 36.9041 592.733 52.5255C605.311 74.233 601.051 104.461 581.169 122.111L580.763 122.314C564.939 135.298 540.797 138.138 521.727 127.183C502.656 116.228 491.701 92.2889 495.556 70.3784C499.816 46.4392 522.538 27.1662 546.883 26.5575C547.492 26.3547 547.695 26.3547 547.897 26.3547ZM561.896 99.5923C572.445 90.6659 573.865 70.7842 561.896 61.452C557.838 58.206 553.172 56.1772 547.695 55.9743C535.522 55.9743 524.364 67.5382 524.973 79.3049C525.581 92.086 533.899 104.461 548.912 104.461C553.375 104.461 558.447 102.433 561.896 99.5923Z" fill="#000000"/>
<g clip-path="url(#clip0_9148_3995)">
<path d="M93.5228 148.683L90.4817 161.955C130.747 157.244 162 122.914 162 81.2546C162 36.3801 125.735 0 81.0018 0C36.269 0 0 36.3801 0 81.2546C0 123.05 31.4595 157.47 71.9212 162C71.2616 150.249 74.7805 138.633 71.7572 127.036C68.7838 115.637 56.5693 105.998 46.7828 99.9624C43.6454 98.0306 36.1585 94.962 34.0443 92.9361C29.8159 88.8876 33.1886 83.3224 36.3438 79.8807C39.8378 76.0728 44.0982 73.3146 49.0538 76.5157C54.7653 80.205 52.562 91.6877 59.368 94.962C67.7178 98.9791 74.3027 87.4719 74.4418 80.6025C74.645 70.5355 68.3916 66.2011 65.9886 57.5219C64.1454 50.8652 62.3486 33.1093 67.4718 27.8543C70.5878 24.6602 80.5704 26.184 84.3495 28.081C89.9469 30.8915 90.2607 33.1127 88.9772 38.7966C87.683 44.5362 84.6312 51.1267 84.0286 56.9221C83.6507 60.5347 84.1998 63.0105 87.4691 65.0469C93.7189 68.9384 97.9865 61.6784 100.04 56.9256C100.828 55.1019 103.095 47.1201 103.955 46.489C107.056 44.205 114.718 46.89 117.834 48.5707C122.693 51.186 125.221 53.9477 123.046 59.5967C120.44 66.3754 107.516 73.7331 101.652 78.6846C91.4372 87.308 82.6453 98.334 86.2712 112.495C88.642 121.753 99.106 122.858 104.251 114.978C106.333 111.79 106.326 107.515 110.91 106.877C114.989 106.309 119.182 107.669 121.538 111.055C123.66 114.102 123.175 115.173 121.175 117.959C113.299 128.929 97.8439 135.255 93.5264 148.68L93.5228 148.683ZM41.6917 67.6761C36.9606 67.6761 33.1245 63.9241 33.1245 59.2968C33.1245 54.6695 36.9606 50.9175 41.6917 50.9175C46.4227 50.9175 50.2589 54.6695 50.2589 59.2968C50.2589 63.9241 46.4227 67.6761 41.6917 67.6761Z" fill="#000000"/>
</g>
<defs>
<clipPath id="clip0_9148_3995">
<rect width="162" height="162" fill="white"/>
</clipPath>
</defs>
</svg>
