<svg width="1200" height="330" viewBox="0 0 1200 330" fill="none" xmlns="http://www.w3.org/2000/svg">
<path d="M546.193 195.853C547.004 195.041 547.41 193.824 548.222 193.418L596.911 227.095C574.595 259.961 533.209 278.22 493.445 272.539C471.535 269.699 450.436 260.367 434.612 245.76C395.254 209.648 386.734 142.699 424.062 99.2843C443.538 76.9682 473.564 63.1727 503.589 62.3612C503.589 62.3612 503.995 62.3612 504.401 62.3612C536.455 63.1727 568.915 78.1854 589.608 103.342L543.353 141.076L542.947 140.265C527.934 123.224 501.155 116.326 480.461 128.904C467.883 136.207 458.551 149.597 458.551 164.204C458.145 182.869 468.289 201.939 486.953 209.648C507.241 217.763 531.992 214.923 546.193 195.853Z" fill="black"/>
<path d="M693.01 58.7095C729.528 59.1152 764.828 79.8084 782.681 111.051C807.837 154.466 799.317 214.923 759.553 250.223L758.742 250.629C727.093 276.597 678.809 282.277 640.669 260.367C602.528 238.456 580.618 190.578 588.327 146.757C596.848 98.8786 642.292 60.3325 690.982 59.1152C692.199 58.7095 692.605 58.7095 693.01 58.7095ZM721.007 205.185C742.106 187.332 744.946 147.568 721.007 128.904C712.892 122.412 703.56 118.355 692.605 117.949C668.26 117.949 645.944 141.076 647.161 164.61C648.378 190.172 665.014 214.923 695.039 214.923C703.966 214.923 714.109 210.865 721.007 205.185Z" fill="black"/>
<path d="M948.978 195.853C949.789 195.041 950.195 193.824 951.006 193.418L999.696 227.095C977.38 259.961 935.994 278.22 896.23 272.539C874.32 269.699 853.221 260.367 837.397 245.76C798.039 209.648 789.518 142.699 826.847 99.2843C846.323 76.9682 876.349 63.1727 906.374 62.3612C906.374 62.3612 906.78 62.3612 907.186 62.3612C939.24 63.1727 971.7 78.1854 992.393 103.342L946.137 141.076L945.732 140.265C930.719 123.224 903.94 116.326 883.246 128.904C870.668 136.207 861.336 149.597 861.336 164.204C860.93 182.869 871.074 201.939 889.738 209.648C910.026 217.763 934.776 214.923 948.978 195.853Z" fill="black"/>
<path d="M1095.8 58.7095C1132.31 59.1152 1167.61 79.8084 1185.47 111.051C1210.62 154.466 1202.1 214.923 1162.34 250.223L1161.53 250.629C1129.88 276.597 1081.59 282.277 1043.45 260.367C1005.31 238.456 983.403 190.578 991.112 146.757C999.633 98.8786 1045.08 60.3325 1093.77 59.1152C1094.98 58.7095 1095.39 58.7095 1095.8 58.7095ZM1123.79 205.185C1144.89 187.332 1147.73 147.568 1123.79 128.904C1115.68 122.412 1106.34 118.355 1095.39 117.949C1071.04 117.949 1048.73 141.076 1049.95 164.61C1051.16 190.172 1067.8 214.923 1097.82 214.923C1106.75 214.923 1116.89 210.865 1123.79 205.185Z" fill="black"/>
<path d="M161.596 5.82422C72.3475 5.82422 0 78.5276 0 168.215C0 250.199 60.4577 317.985 139.016 329.016C138.952 328.685 138.92 328.322 138.941 327.96L148.156 170.348C148.262 168.62 147.19 167.052 145.576 166.465C145.544 166.454 145.523 166.444 145.502 166.433C143.347 165.644 140.979 166.828 140.385 169.047L112.486 273.669C111.117 278.811 104.514 280.124 101.244 275.931C86.5941 257.134 80.6067 231.882 87.2311 207.047C93.0592 185.166 107.518 167.937 125.947 158.048C127.933 156.981 128.644 154.463 127.423 152.565C127.412 152.533 127.391 152.511 127.38 152.479C126.107 150.484 123.378 150.068 121.595 151.626L37.729 224.884C34.109 228.052 28.4719 225.769 27.973 220.958C25.1279 193.2 35.3298 164.534 57.878 144.83C77.5175 127.676 102.539 120.805 126.468 123.729C127.455 123.846 128.453 123.473 129.068 122.683C129.09 122.662 129.1 122.64 129.121 122.619C130.64 120.699 129.323 117.872 126.882 117.872H71.4876C65.7869 117.872 62.6764 111.14 66.392 106.788C77.4962 93.7831 93.9722 85.5473 112.37 85.5473C130.767 85.5473 147.232 93.7831 158.336 106.798C158.336 106.798 158.34 106.802 158.347 106.809C159.143 107.737 160.258 108.324 161.468 108.313H161.712C162.933 108.324 164.048 107.737 164.833 106.809C164.833 106.809 164.841 106.805 164.855 106.798C175.948 93.7831 192.424 85.5473 210.822 85.5473C229.219 85.5473 245.695 93.7831 256.799 106.788C260.515 111.14 257.404 117.872 251.704 117.872H196.31C193.868 117.872 192.552 120.699 194.07 122.619C194.08 122.64 194.102 122.662 194.123 122.683C194.739 123.473 195.726 123.846 196.724 123.729C220.652 120.805 245.674 127.676 265.303 144.83C287.861 164.534 298.063 193.2 295.218 220.958C294.719 225.769 289.082 228.052 285.452 224.884L201.586 151.626C199.813 150.068 197.085 150.484 195.811 152.479C195.8 152.511 195.779 152.533 195.768 152.565C194.547 154.463 195.259 156.981 197.244 158.048C215.663 167.937 230.132 185.166 235.96 207.047C242.584 231.882 236.597 257.134 221.947 275.931C218.677 280.124 212.074 278.811 210.694 273.669L182.806 169.047C182.212 166.828 179.844 165.644 177.689 166.433C177.668 166.444 177.636 166.454 177.615 166.465C175.991 167.052 174.929 168.62 175.035 170.348L184.25 327.96C184.271 328.322 184.239 328.685 184.176 329.016C262.734 317.985 323.191 250.199 323.191 168.215C323.191 78.5276 250.844 5.82422 161.596 5.82422ZM161.596 76.5007C161.596 61.6933 149.642 49.6916 134.918 49.6916C149.653 49.6916 161.596 37.6793 161.596 22.8826C161.596 37.69 173.539 49.6916 188.273 49.6916C173.539 49.6916 161.596 61.704 161.596 76.5007Z" fill="black"/>
</svg>
