<svg width="512" height="512" viewBox="0 0 512 512" fill="none" xmlns="http://www.w3.org/2000/svg">
<path d="M256 1C114.613 1 0 115.502 0 256.752C0 385.871 95.7772 492.627 220.229 510C220.128 509.479 220.077 508.908 220.111 508.337L234.709 260.112C234.877 257.39 233.178 254.92 230.622 253.996C230.572 253.979 230.538 253.963 230.504 253.946C227.09 252.703 223.34 254.568 222.398 258.062L178.201 422.834C176.032 430.932 165.571 432.999 160.391 426.396C137.183 396.792 127.697 357.023 138.192 317.909C147.425 283.449 170.33 256.315 199.526 240.74C202.671 239.06 203.798 235.095 201.864 232.104C201.847 232.054 201.813 232.02 201.796 231.97C199.778 228.828 195.456 228.172 192.631 230.625L59.7703 346.001C54.0355 350.991 45.1052 347.396 44.3148 339.818C39.8076 296.101 55.9695 250.955 91.6905 219.923C122.803 192.906 162.443 182.086 200.35 186.69C201.914 186.874 203.495 186.286 204.47 185.043C204.504 185.009 204.521 184.976 204.554 184.942C206.959 181.918 204.874 177.466 201.006 177.466H113.251C104.22 177.466 99.2921 166.864 105.178 160.009C122.77 139.528 148.871 126.557 178.016 126.557C207.161 126.557 233.246 139.528 250.837 160.026C250.837 160.026 250.843 160.031 250.854 160.043C252.115 161.504 253.881 162.428 255.798 162.412H256.185C258.119 162.428 259.885 161.504 261.129 160.043C261.129 160.043 261.141 160.037 261.163 160.026C278.738 139.528 304.839 126.557 333.984 126.557C363.129 126.557 389.23 139.528 406.822 160.009C412.708 166.864 407.78 177.466 398.749 177.466H310.994C307.126 177.466 305.041 181.918 307.446 184.942C307.462 184.976 307.496 185.009 307.53 185.043C308.505 186.286 310.069 186.874 311.65 186.69C349.557 182.086 389.197 192.906 420.293 219.923C456.03 250.955 472.192 296.101 467.685 339.818C466.895 347.396 457.965 350.991 452.213 346.001L319.353 230.625C316.544 228.172 312.222 228.828 310.204 231.97C310.187 232.02 310.153 232.054 310.136 232.104C308.202 235.095 309.329 239.06 312.474 240.74C341.653 256.315 364.575 283.449 373.808 317.909C384.303 357.023 374.818 396.792 351.609 426.396C346.429 432.999 335.968 430.932 333.782 422.834L289.602 258.062C288.66 254.568 284.91 252.703 281.496 253.946C281.462 253.963 281.412 253.979 281.378 253.996C278.805 254.92 277.123 257.39 277.291 260.112L291.889 508.337C291.923 508.908 291.872 509.479 291.771 510C416.223 492.627 512 385.871 512 256.752C512 115.502 397.387 1 256 1ZM256 112.31C256 88.9892 237.063 70.0876 213.737 70.0876C237.08 70.0876 256 51.1691 256 27.8655C256 51.1859 274.92 70.0876 298.263 70.0876C274.92 70.0876 256 89.006 256 112.31Z" fill="#FFD646"/>
</svg>
