<svg width="512" height="512" viewBox="0 0 512 512" fill="none" xmlns="http://www.w3.org/2000/svg">
<path d="M255.9 40C192.203 40 140.568 91.6346 140.568 155.331C140.568 213.557 183.717 261.699 239.784 269.533C239.739 269.299 239.716 269.041 239.731 268.783L246.308 156.846C246.383 155.619 245.618 154.505 244.466 154.089C244.444 154.081 244.429 154.073 244.413 154.066C242.875 153.505 241.186 154.346 240.761 155.922L220.85 230.226C219.873 233.878 215.16 234.81 212.827 231.832C202.371 218.482 198.098 200.548 202.825 182.91C206.985 167.37 217.304 155.134 230.457 148.111C231.874 147.353 232.382 145.565 231.51 144.216C231.503 144.194 231.488 144.178 231.48 144.156C230.571 142.739 228.624 142.443 227.351 143.55L167.496 195.578C164.912 197.828 160.889 196.207 160.533 192.79C158.502 173.076 165.783 152.717 181.876 138.723C195.893 126.54 213.751 121.661 230.829 123.737C231.533 123.82 232.245 123.555 232.685 122.994C232.7 122.979 232.708 122.964 232.723 122.949C233.806 121.585 232.867 119.577 231.124 119.577H191.589C187.521 119.577 185.301 114.796 187.952 111.705C195.878 102.469 207.637 96.62 220.767 96.62C233.897 96.62 245.648 102.469 253.574 111.713C253.574 111.713 253.576 111.715 253.581 111.72C254.149 112.379 254.945 112.796 255.809 112.789H255.983C256.854 112.796 257.65 112.379 258.21 111.72C258.21 111.72 258.215 111.718 258.226 111.713C266.143 102.469 277.902 96.62 291.032 96.62C304.163 96.62 315.921 102.469 323.847 111.705C326.498 114.796 324.278 119.577 320.21 119.577H280.675C278.932 119.577 277.993 121.585 279.076 122.949C279.084 122.964 279.099 122.979 279.114 122.994C279.554 123.555 280.258 123.82 280.971 123.737C298.048 121.661 315.906 126.54 329.915 138.723C346.016 152.717 353.297 173.076 351.266 192.79C350.91 196.207 346.887 197.828 344.296 195.578L284.441 143.55C283.175 142.443 281.228 142.739 280.319 144.156C280.311 144.178 280.296 144.194 280.289 144.216C279.417 145.565 279.925 147.353 281.342 148.111C294.487 155.134 304.814 167.37 308.974 182.91C313.702 200.548 309.428 218.482 298.973 231.832C296.639 234.81 291.926 233.878 290.941 230.226L271.038 155.922C270.613 154.346 268.924 153.505 267.386 154.066C267.371 154.073 267.348 154.081 267.333 154.089C266.173 154.505 265.416 155.619 265.492 156.846L272.068 268.783C272.083 269.041 272.06 269.299 272.015 269.533C328.082 261.699 371.231 213.557 371.231 155.331C371.231 91.6346 319.596 40 255.9 40ZM255.9 90.195C255.9 79.6787 247.368 71.155 236.86 71.155C247.376 71.155 255.9 62.6238 255.9 52.115C255.9 62.6313 264.423 71.155 274.94 71.155C264.423 71.155 255.9 79.6863 255.9 90.195Z" fill="black"/>
<path d="M129.068 372.344C129.474 371.938 129.677 371.329 130.083 371.126L154.442 387.974C143.277 404.416 122.573 413.55 102.68 410.708C91.7183 409.287 81.1629 404.619 73.2463 397.311C53.5564 379.245 49.2937 345.752 67.9686 324.032C77.7121 312.868 92.7332 305.966 107.754 305.56C107.754 305.56 107.957 305.56 108.16 305.56C124.196 305.966 140.435 313.477 150.788 326.062L127.647 344.94L127.444 344.534C119.934 336.009 106.536 332.558 96.184 338.85C89.8914 342.504 85.2226 349.203 85.2226 356.51C85.0196 365.848 90.0944 375.388 99.4318 379.245C109.581 383.305 121.964 381.884 129.068 372.344Z" fill="black"/>
<path d="M202.518 303.733C220.787 303.936 238.447 314.289 247.379 329.919C259.964 351.639 255.701 381.884 235.808 399.544L235.402 399.747C219.569 412.738 195.414 415.58 176.333 404.619C157.252 393.657 146.29 369.705 150.147 347.782C154.41 323.829 177.145 304.545 201.503 303.936C202.112 303.733 202.315 303.733 202.518 303.733ZM216.524 377.012C227.08 368.081 228.501 348.188 216.524 338.85C212.465 335.603 207.796 333.573 202.315 333.37C190.136 333.37 178.972 344.94 179.581 356.713C180.19 369.502 188.512 381.884 203.533 381.884C207.999 381.884 213.074 379.854 216.524 377.012Z" fill="black"/>
<path d="M330.574 372.344C330.98 371.938 331.183 371.329 331.589 371.126L355.947 387.974C344.783 404.416 324.078 413.55 304.185 410.708C293.224 409.287 282.669 404.619 274.752 397.311C255.062 379.245 250.799 345.752 269.474 324.032C279.218 312.868 294.239 305.966 309.26 305.56C309.26 305.56 309.463 305.56 309.666 305.56C325.702 305.966 341.941 313.477 352.294 326.062L329.153 344.94L328.95 344.534C321.439 336.009 308.042 332.558 297.69 338.85C291.397 342.504 286.728 349.203 286.728 356.51C286.525 365.848 291.6 375.388 300.938 379.245C311.087 383.305 323.469 381.884 330.574 372.344Z" fill="black"/>
<path d="M404.024 303.733C422.293 303.936 439.953 314.289 448.884 329.919C461.47 351.639 457.207 381.884 437.314 399.544L436.908 399.747C421.075 412.738 396.919 415.58 377.838 404.619C358.758 393.657 347.796 369.705 351.653 347.782C355.916 323.829 378.65 304.545 403.009 303.936C403.618 303.733 403.821 303.733 404.024 303.733ZM418.03 377.012C428.586 368.081 430.007 348.188 418.03 338.85C413.97 335.603 409.302 333.573 403.821 333.37C391.642 333.37 380.477 344.94 381.086 356.713C381.695 369.502 390.018 381.884 405.039 381.884C409.505 381.884 414.579 379.854 418.03 377.012Z" fill="black"/>
</svg>
