<svg width="506" height="506" viewBox="0 0 506 506" fill="none" xmlns="http://www.w3.org/2000/svg">
<g clip-path="url(#clip0_9346_249)">
<path d="M292.114 464.405L282.616 505.858C408.383 491.144 506 383.916 506 253.795C506 113.632 392.726 0 253.006 0C113.285 0 0 113.632 0 253.795C0 384.341 98.2624 491.852 224.643 506C222.582 469.295 233.574 433.016 224.13 396.79C214.843 361.186 176.692 331.082 146.124 312.228C136.325 306.194 112.939 296.61 106.336 290.282C93.1287 277.637 103.663 260.254 113.518 249.504C124.432 237.61 137.739 228.995 153.218 238.993C171.057 250.517 164.175 286.383 185.433 296.61C211.514 309.157 232.081 273.215 232.516 251.758C233.15 220.314 213.618 206.776 206.113 179.667C200.355 158.875 194.743 103.415 210.745 87.0018C220.478 77.0251 251.658 81.7847 263.462 87.7097C280.945 96.4883 281.925 103.426 277.916 121.179C273.874 139.107 264.342 159.692 262.46 177.794C261.279 189.077 262.994 196.81 273.206 203.171C292.727 215.326 306.056 192.65 312.471 177.805C314.932 172.108 322.014 147.178 324.698 145.206C334.386 138.072 358.317 146.459 368.05 151.708C383.228 159.877 391.123 168.503 384.33 186.148C376.19 207.321 335.823 230.302 317.504 245.768C285.6 272.703 258.139 307.142 269.464 351.373C276.87 380.29 309.553 383.742 325.622 359.127C332.125 349.172 332.103 335.819 346.424 333.826C359.163 332.051 372.259 336.299 379.62 346.874C386.245 356.394 384.731 359.737 378.484 368.44C353.885 402.704 305.611 422.462 292.126 464.394L292.114 464.405ZM130.222 211.383C115.445 211.383 103.463 199.664 103.463 185.211C103.463 170.758 115.445 159.039 130.222 159.039C144.999 159.039 156.981 170.758 156.981 185.211C156.981 199.664 144.999 211.383 130.222 211.383Z" fill="#F9F35C"/>
</g>
<defs>
<clipPath id="clip0_9346_249">
<rect width="505.473" height="505.473" fill="white" transform="scale(1.00104)"/>
</clipPath>
</defs>
</svg>
