<svg width="372" height="372" viewBox="0 0 372 372" fill="none" xmlns="http://www.w3.org/2000/svg">
<g clip-path="url(#clip0_9128_57720)">
<path d="M198.449 180.131L195.408 193.402C235.674 188.691 266.926 154.362 266.926 112.702C266.926 67.8278 230.661 31.4477 185.928 31.4477C141.195 31.4477 104.926 67.8278 104.926 112.702C104.926 154.498 136.386 188.918 176.847 193.448C176.188 181.696 179.707 170.081 176.683 158.483C173.71 147.084 161.496 137.446 151.709 131.41C148.572 129.478 141.085 126.41 138.971 124.384C134.742 120.335 138.115 114.77 141.27 111.328C144.764 107.521 149.024 104.762 153.98 107.963C159.692 111.653 157.488 123.135 164.294 126.41C172.644 130.427 179.229 118.92 179.368 112.05C179.571 101.983 173.318 97.6488 170.915 88.9696C169.072 82.3129 167.275 64.557 172.398 59.302C175.514 56.1079 185.497 57.6317 189.276 59.5287C194.873 62.3392 195.187 64.5604 193.903 70.2443C192.609 75.9839 189.557 82.5744 188.955 88.3698C188.577 91.9824 189.126 94.4582 192.395 96.4946C198.645 100.386 202.913 93.1261 204.966 88.3733C205.754 86.5496 208.022 78.5678 208.881 77.9367C211.983 75.6527 219.644 78.3377 222.76 80.0184C227.62 82.6337 230.147 85.3954 227.973 91.0444C225.367 97.8231 212.443 105.181 206.578 110.132C196.363 118.756 187.572 129.782 191.197 143.942C193.568 153.201 204.032 154.306 209.177 146.425C211.259 143.238 211.252 138.963 215.837 138.325C219.915 137.756 224.108 139.116 226.465 142.502C228.586 145.55 228.101 146.621 226.101 149.407C218.225 160.377 202.77 166.702 198.453 180.127L198.449 180.131ZM146.618 99.1238C141.887 99.1238 138.051 95.3718 138.051 90.7445C138.051 86.1172 141.887 82.3652 146.618 82.3652C151.349 82.3652 155.185 86.1172 155.185 90.7445C155.185 95.3718 151.349 99.1238 146.618 99.1238Z" fill="#FFD646"/>
</g>
<path d="M93.7761 270.531C94.071 270.236 94.2185 269.794 94.5135 269.646L112.212 281.887C104.1 293.833 89.0566 300.47 74.6032 298.405C66.6391 297.373 58.9699 293.981 53.218 288.672C38.9121 275.545 35.8149 251.211 49.3834 235.43C56.4627 227.318 67.3765 222.304 78.2903 222.009C78.2903 222.009 78.4378 222.009 78.5852 222.009C90.2365 222.304 102.035 227.761 109.557 236.905L92.7437 250.621L92.5962 250.326C87.1393 244.131 77.4054 241.624 69.8837 246.196C65.3117 248.851 61.9196 253.718 61.9196 259.027C61.7721 265.812 65.4592 272.743 72.2434 275.545C79.6176 278.495 88.6141 277.463 93.7761 270.531Z" fill="#FFD646"/>
<path d="M147.142 220.681C160.416 220.829 173.247 228.351 179.736 239.707C188.88 255.488 185.783 277.463 171.33 290.294L171.035 290.441C159.531 299.88 141.98 301.945 128.117 293.981C114.253 286.017 106.289 268.614 109.091 252.685C112.189 235.282 128.707 221.271 146.405 220.829C146.847 220.681 146.995 220.681 147.142 220.681ZM157.319 273.923C164.988 267.434 166.02 252.98 157.319 246.196C154.369 243.836 150.977 242.362 146.995 242.214C138.146 242.214 130.034 250.621 130.477 259.175C130.919 268.466 136.966 277.463 147.88 277.463C151.124 277.463 154.811 275.988 157.319 273.923Z" fill="#FFD646"/>
<path d="M240.183 270.531C240.478 270.236 240.625 269.794 240.92 269.646L258.618 281.887C250.506 293.833 235.463 300.47 221.01 298.405C213.046 297.373 205.376 293.981 199.625 288.672C185.319 275.545 182.221 251.211 195.79 235.43C202.869 227.318 213.783 222.304 224.697 222.009C224.697 222.009 224.844 222.009 224.992 222.009C236.643 222.304 248.442 227.761 255.963 236.905L239.15 250.621L239.003 250.326C233.546 244.131 223.812 241.624 216.29 246.196C211.718 248.851 208.326 253.718 208.326 259.027C208.179 265.812 211.866 272.743 218.65 275.545C226.024 278.495 235.021 277.463 240.183 270.531Z" fill="#FFD646"/>
<path d="M293.549 220.681C306.822 220.829 319.653 228.351 326.143 239.707C335.287 255.488 332.189 277.463 317.736 290.294L317.441 290.441C305.937 299.88 288.387 301.945 274.523 293.981C260.66 286.017 252.696 268.614 255.498 252.685C258.595 235.282 275.113 221.271 292.811 220.829C293.254 220.681 293.401 220.681 293.549 220.681ZM303.725 273.923C311.394 267.434 312.427 252.98 303.725 246.196C300.775 243.836 297.383 242.362 293.401 242.214C284.552 242.214 276.441 250.621 276.883 259.175C277.325 268.466 283.372 277.463 294.286 277.463C297.531 277.463 301.218 275.988 303.725 273.923Z" fill="#FFD646"/>
<defs>
<clipPath id="clip0_9128_57720">
<rect width="162" height="162" fill="white" transform="translate(104.926 31.4477)"/>
</clipPath>
</defs>
</svg>
