<svg width="877" height="236" viewBox="0 0 877 236" fill="none" xmlns="http://www.w3.org/2000/svg">
<path d="M160.168 150.396C161.058 149.506 161.503 148.171 162.393 147.726L215.787 184.657C191.315 220.699 145.929 240.722 102.323 234.493C78.2956 231.378 55.1578 221.144 37.8045 205.125C-5.3564 165.524 -14.7005 92.1062 26.2356 44.4957C47.5935 20.0231 80.5204 4.89452 113.447 4.00462C113.447 4.00462 113.892 4.00462 114.337 4.00462C149.489 4.89452 185.085 21.3579 207.778 48.9453L157.053 90.3264L156.608 89.4364C140.145 70.7482 110.777 63.1839 88.0847 76.9776C74.291 84.9869 64.057 99.6705 64.057 115.689C63.612 136.157 74.7359 157.07 95.204 165.524C117.452 174.423 144.594 171.309 160.168 150.396Z" fill="#F9F35C"/>
<path d="M321.173 0C361.219 0.444952 399.93 23.1378 419.508 57.3995C447.096 105.01 437.752 171.309 394.146 210.02L393.256 210.465C358.549 238.942 305.599 245.172 263.773 221.144C221.947 197.116 197.92 144.611 206.374 96.5558C215.718 44.0508 265.553 1.77983 318.948 0.444952C320.283 0 320.728 0 321.173 0ZM351.875 160.63C375.013 141.051 378.127 97.4457 351.875 76.9776C342.976 69.8583 332.742 65.4087 320.728 64.9638C294.03 64.9638 269.558 90.3264 270.893 116.134C272.227 144.166 290.471 171.309 323.398 171.309C333.187 171.309 344.311 166.859 351.875 160.63Z" fill="#F9F35C"/>
<path d="M601.875 150.396C602.765 149.506 603.21 148.171 604.1 147.726L657.494 184.657C633.022 220.699 587.636 240.722 544.03 234.493C520.003 231.378 496.865 221.144 479.512 205.125C436.351 165.524 427.007 92.1062 467.943 44.4957C489.301 20.0231 522.227 4.89452 555.154 4.00462C555.154 4.00462 555.599 4.00462 556.044 4.00462C591.196 4.89452 626.792 21.3579 649.485 48.9453L598.76 90.3264L598.315 89.4364C581.852 70.7482 552.485 63.1839 529.792 76.9776C515.998 84.9869 505.764 99.6705 505.764 115.689C505.319 136.157 516.443 157.07 536.911 165.524C559.159 174.423 586.301 171.309 601.875 150.396Z" fill="#F9F35C"/>
<path d="M762.88 0C802.926 0.444952 841.637 23.1378 861.215 57.3995C888.803 105.01 879.459 171.309 835.853 210.02L834.963 210.465C800.256 238.942 747.306 245.172 705.48 221.144C663.654 197.116 639.627 144.611 648.081 96.5558C657.425 44.0508 707.26 1.77983 760.655 0.444952C761.99 0 762.435 0 762.88 0ZM793.582 160.63C816.72 141.051 819.834 97.4457 793.582 76.9776C784.683 69.8583 774.449 65.4087 762.435 64.9638C735.737 64.9638 711.265 90.3264 712.6 116.134C713.935 144.166 732.178 171.309 765.105 171.309C774.894 171.309 786.018 166.859 793.582 160.63Z" fill="#F9F35C"/>
</svg>
