<svg width="923" height="923" viewBox="0 0 923 923" fill="none" xmlns="http://www.w3.org/2000/svg">
<path d="M232.676 671.237C233.407 670.505 233.773 669.407 234.505 669.041L278.417 699.414C258.291 729.054 220.966 745.521 185.104 740.398C165.344 737.837 146.315 729.42 132.044 716.247C96.548 683.678 88.8634 623.299 122.529 584.144C140.094 564.018 167.173 551.576 194.252 550.844C194.252 550.844 194.618 550.844 194.984 550.844C223.893 551.576 253.168 565.116 271.831 587.804L230.114 621.835L229.748 621.104C216.209 605.734 192.057 599.513 173.394 610.857C162.05 617.444 153.634 629.52 153.634 642.694C153.268 659.527 162.416 676.726 179.249 683.678C197.546 690.997 219.868 688.436 232.676 671.237Z" fill="#F9F35C"/>
<path d="M365.087 547.551C398.021 547.917 429.857 566.579 445.958 594.756C468.646 633.911 460.961 688.436 425.1 720.272L424.368 720.638C395.825 744.058 352.279 749.181 317.881 729.42C283.483 709.66 263.723 666.479 270.676 626.959C278.36 583.778 319.345 549.015 363.257 547.917C364.355 547.551 364.721 547.551 365.087 547.551ZM390.336 679.653C409.365 663.552 411.926 627.69 390.336 610.857C383.017 605.002 374.601 601.343 364.721 600.977C342.765 600.977 322.638 621.835 323.736 643.06C324.834 666.114 339.837 688.436 366.916 688.436C374.967 688.436 384.115 684.776 390.336 679.653Z" fill="#F9F35C"/>
<path d="M595.937 671.237C596.669 670.505 597.035 669.407 597.767 669.041L641.679 699.414C621.552 729.054 584.227 745.521 548.365 740.398C528.605 737.837 509.576 729.42 495.305 716.247C459.809 683.678 452.125 623.299 485.791 584.144C503.356 564.018 530.435 551.576 557.514 550.844C557.514 550.844 557.88 550.844 558.246 550.844C587.154 551.576 616.429 565.116 635.092 587.804L593.375 621.835L593.009 621.104C579.47 605.734 555.318 599.513 536.656 610.857C525.312 617.444 516.895 629.52 516.895 642.694C516.529 659.527 525.678 676.726 542.51 683.678C560.807 690.997 583.129 688.436 595.937 671.237Z" fill="#F9F35C"/>
<path d="M728.348 547.551C761.282 547.917 793.118 566.579 809.219 594.756C831.907 633.911 824.223 688.436 788.361 720.272L787.629 720.638C759.086 744.058 715.54 749.181 681.142 729.42C646.745 709.66 626.984 666.479 633.937 626.959C641.622 583.778 682.606 549.015 726.518 547.917C727.616 547.551 727.982 547.551 728.348 547.551ZM753.597 679.653C772.626 663.552 775.188 627.69 753.597 610.857C746.279 605.002 737.862 601.343 727.982 600.977C706.026 600.977 685.9 621.835 686.997 643.06C688.095 666.114 703.098 688.436 730.178 688.436C738.228 688.436 747.377 684.776 753.597 679.653Z" fill="#F9F35C"/>
<g clip-path="url(#clip0_9365_162)">
<path d="M493.134 453.593L485.328 487.658C588.682 475.566 668.901 387.449 668.901 280.517C668.901 165.333 575.815 71.9531 460.995 71.9531C346.175 71.9531 253.08 165.333 253.08 280.517C253.08 387.798 333.83 476.148 437.687 487.775C435.994 457.611 445.027 427.797 437.266 398.028C429.634 368.769 398.282 344.03 373.162 328.537C365.109 323.578 345.892 315.702 340.465 310.501C329.612 300.11 338.269 285.825 346.367 276.991C355.336 267.217 366.271 260.137 378.991 268.354C393.652 277.823 387.996 307.297 405.466 315.702C426.898 326.012 443.8 296.476 444.157 278.843C444.679 253.003 428.628 241.878 422.46 219.6C417.728 202.514 413.116 156.938 426.267 143.45C434.265 135.251 459.888 139.162 469.588 144.031C483.956 151.245 484.761 156.947 481.467 171.536C478.145 186.269 470.311 203.185 468.765 218.061C467.795 227.333 469.204 233.688 477.596 238.915C493.638 248.904 504.592 230.269 509.863 218.07C511.885 213.389 517.705 192.901 519.911 191.281C527.872 185.418 547.538 192.31 555.536 196.624C568.009 203.337 574.498 210.426 568.915 224.926C562.226 242.326 529.053 261.211 513.999 273.921C487.781 296.055 465.214 324.357 474.521 360.705C480.606 384.468 507.465 387.305 520.67 367.077C526.015 358.897 525.996 347.923 537.765 346.285C548.234 344.826 558.996 348.317 565.044 357.008C570.489 364.831 569.245 367.579 564.111 374.73C543.896 402.888 504.226 419.124 493.143 453.584L493.134 453.593ZM360.094 245.664C347.951 245.664 338.104 236.033 338.104 224.156C338.104 212.279 347.951 202.648 360.094 202.648C372.238 202.648 382.085 212.279 382.085 224.156C382.085 236.033 372.238 245.664 360.094 245.664Z" fill="#F9F35C"/>
</g>
<defs>
<clipPath id="clip0_9365_162">
<rect width="415.821" height="415.821" fill="white" transform="translate(253.08 71.9531)"/>
</clipPath>
</defs>
</svg>
