<svg width="1200" height="265" viewBox="0 0 1200 265" fill="none" xmlns="http://www.w3.org/2000/svg">
<path d="M802.964 133.24V195.801H778.116V133.24C778.116 119.495 766.837 108.216 753.091 108.216C739.346 108.216 728.067 119.495 728.067 133.24V195.801H703.043V83.3682H728.067V90.0648C735.469 85.8353 743.928 83.3682 753.091 83.3682C780.583 83.3682 802.964 105.749 802.964 133.24Z" fill="black"/>
<path d="M641.189 83.3682C672.205 83.3682 697.405 108.569 697.405 139.584C697.405 142.052 697.229 144.695 696.877 147.162C668.152 147.162 639.427 147.162 610.878 147.162C614.226 160.732 626.562 170.777 641.189 170.777C648.767 170.777 655.816 167.957 661.279 163.375H691.942C682.955 182.584 663.57 195.801 641.189 195.801C610.173 195.801 584.973 170.6 584.973 139.584C584.973 108.569 610.173 83.3682 641.189 83.3682ZM611.935 128.482H670.266C665.861 116.675 654.406 108.216 641.189 108.216C627.796 108.216 616.341 116.675 611.935 128.482Z" fill="black"/>
<path d="M466.902 240.21V83.3682H491.927V92.8844C500.738 86.8927 511.488 83.3682 523.119 83.3682C554.135 83.3682 579.335 108.569 579.335 139.584C579.335 170.6 554.135 195.801 523.119 195.801C511.488 195.801 500.738 192.276 491.927 186.285V240.21H466.902ZM523.119 108.392C505.848 108.392 491.927 122.314 491.927 139.584C491.927 156.855 505.848 170.777 523.119 170.777C540.389 170.777 554.311 156.855 554.311 139.584C554.311 122.314 540.389 108.392 523.119 108.392Z" fill="black"/>
<path d="M387.654 51.6479C427.305 51.6479 459.554 83.8974 459.554 123.548C459.554 163.199 427.305 195.273 387.654 195.273C348.003 195.273 315.93 163.199 315.93 123.548C315.93 83.8974 348.003 51.6479 387.654 51.6479ZM387.654 76.6721C361.749 76.6721 340.778 97.6431 340.778 123.548C340.778 149.278 361.749 170.248 387.654 170.248C413.559 170.248 434.53 149.278 434.53 123.548C434.53 97.6431 413.559 76.6721 387.654 76.6721Z" fill="black"/>
<path d="M1073.36 195.801H1048.33V186.461C1039.34 192.453 1028.77 195.801 1017.14 195.801C986.123 195.801 960.922 170.777 960.922 139.585C960.922 108.569 986.123 83.3682 1017.14 83.3682C1028.77 83.3682 1039.34 86.7165 1048.33 92.7082V83.3682H1073.36V195.801ZM1017.14 108.392C999.869 108.392 985.947 122.491 985.947 139.585C985.947 156.855 999.869 170.953 1017.14 170.953C1034.41 170.953 1048.33 156.855 1048.33 139.585C1048.33 122.491 1034.41 108.392 1017.14 108.392Z" fill="black"/>
<path d="M1073.36 83.3682H1048.33V92.7082C1039.48 86.8102 1029.1 83.4734 1017.68 83.3705L1017.14 83.3682C986.123 83.3682 960.922 108.569 960.922 139.585L960.927 140.314C961.313 170.923 985.972 195.413 1016.41 195.796L1017.14 195.801C1028.77 195.801 1039.34 192.453 1048.33 186.461V195.801H1073.36V83.3682ZM1046.57 139.585C1046.57 123.457 1033.43 110.155 1017.14 110.154C1000.85 110.154 987.709 123.457 987.709 139.585C987.709 155.894 1000.85 169.19 1017.14 169.19L1017.14 170.953L1016.73 170.95C999.786 170.734 986.163 156.939 985.949 139.988L985.947 139.585C985.947 122.491 999.869 108.392 1017.14 108.392L1017.54 108.395C1034.63 108.613 1048.33 122.624 1048.33 139.585L1048.33 139.988C1048.11 157.074 1034.27 170.953 1017.14 170.953L1017.14 169.19C1033.42 169.19 1046.57 155.894 1046.57 139.585ZM1075.12 197.563H1046.57V189.645C1037.91 194.746 1027.96 197.563 1017.14 197.563C985.153 197.563 959.16 171.754 959.16 139.585C959.16 107.595 985.15 81.606 1017.14 81.606C1027.96 81.606 1037.91 84.4221 1046.57 89.523V81.606H1075.12V197.563Z" fill="black"/>
<path d="M816.415 53.4102H837.209L883.557 148.757L929.905 53.4102H950.699V195.273H925.851V126.368L897.126 181.183H869.988L841.439 126.544V195.273H816.415V53.4102Z" fill="black"/>
<path d="M950.699 53.4102H929.905L883.557 148.757L837.209 53.4102H816.415V195.273H841.439V126.544L869.988 181.183H897.126L925.851 126.368V195.273H950.699V53.4102ZM952.461 197.035H924.089V134.622L898.269 182.945H868.844L843.201 134.823V197.035H814.652V51.6479H838.357L883.557 144.402L928.757 51.6479H952.461V197.035Z" fill="black"/>
<path d="M1139.19 119.54L1166.55 83.0755H1196.18L1154 139.283L1196.46 195.861H1166.83L1139.19 159.027L1111.55 195.861H1081.91L1124.37 139.283L1082.19 83.0755H1111.82L1139.19 119.54Z" fill="black"/>
<path d="M1112.67 81.0195L1139.5 116.75L1166.32 81.0195H1199.72L1156.19 138.989L1200 197.329H1166.6L1139.5 161.226L1112.39 197.329H1078.99L1122.8 138.989L1079.27 81.0195H1112.67ZM1126.37 138.989L1084.72 194.464H1110.97L1139.5 156.468L1168.03 194.464H1194.28L1152.62 138.989L1194 83.8842H1167.75L1139.5 121.509L1111.25 83.8842H1084.99L1126.37 138.989Z" fill="black"/>
<path d="M127.531 2.09805C199.179 -0.474697 259.423 55.3616 262.286 126.994C265.15 198.626 209.555 259.092 137.93 262.246C65.893 265.419 4.99815 209.438 2.11833 137.393C-0.762256 65.348 55.4699 4.68523 127.531 2.09805ZM30.0908 167.487C36.1437 167.255 51.225 167.349 55.7495 164.722C57.7344 161.786 56.1316 144.884 56.4164 140.377C57.5681 122.161 62.0804 102.56 76.6884 90.3971C91.1323 78.3712 112.299 74.6872 129.315 83.0146C130.132 83.4142 131.879 84.2748 132.643 84.4381C144.567 77.9983 155.576 76.6333 168.79 80.5566C181.527 84.3454 192.219 93.0762 198.477 104.799C202.023 111.378 205.377 123.129 205.847 130.677C208.082 166.591 195.843 166.511 234.487 166.707C242.563 133.446 242.662 106.693 224.067 76.1988C209.122 51.9639 185.273 34.551 157.636 27.6949C150.856 26.0663 137.406 24.1734 130.481 24.8358C99.4695 25.9182 74.1519 37.1169 52.862 59.9199C33.6809 80.571 23.5328 108.021 24.6692 136.182C25.0643 146.988 27.0051 157.137 30.0908 167.487ZM105.815 101.298C54.7482 113.505 105.612 175.456 57.8476 188.07C52.4617 189.492 46.3101 189.355 40.7358 189.482C60.1212 216.002 82.0993 233.238 115.414 238.446C143.49 242.809 172.154 235.93 195.19 219.3C203.727 213.039 218.629 199.236 222.994 189.962L222.276 189.242L221.301 189.258C214.71 189.325 208.774 189.46 202.467 187.042C168.827 174.139 193.919 132.788 175.464 110.413C169.925 103.697 160.483 101.009 152.075 101.046C151.125 101.051 150.175 101.074 149.226 101.113C162.359 124.318 174.128 170.287 145.974 186.424C139.435 190.108 131.688 191.008 124.477 188.924C98.9119 181.716 99.0463 144.706 105.022 124.052C107.368 115.918 110.949 108.193 115.642 101.147L105.815 101.298ZM133.148 168.502C146.107 158.533 139.649 129.64 132.801 117.475C132.695 117.288 132.064 116.863 131.847 116.735C126.894 128.236 116.724 161.628 132.492 168.237C132.71 168.327 132.929 168.416 133.148 168.502Z" fill="#3297D7"/>
<path d="M127.459 0.0867636C200.214 -2.5256 261.389 54.1736 264.297 126.913C267.205 199.652 210.751 261.052 138.02 264.256C64.8688 267.478 3.03189 210.632 0.107542 137.473C-2.81746 64.3144 54.2843 2.71392 127.459 0.0867636ZM262.286 126.994C259.423 55.3616 199.179 -0.474697 127.531 2.09805L125.845 2.16981C54.5949 5.6343 -0.739751 65.9108 2.11833 137.393C4.97581 208.875 64.9453 264.543 136.244 262.309L137.93 262.246C208.996 259.116 264.281 199.567 262.343 128.671L262.286 126.994ZM152.075 101.046C160.483 101.009 169.925 103.697 175.464 110.413C193.919 132.788 168.827 174.139 202.467 187.042C208.774 189.46 214.71 189.325 221.301 189.258L222.276 189.242L222.994 189.962C218.629 199.236 203.727 213.039 195.19 219.3L194.106 220.072C171.621 235.886 143.945 242.529 116.731 238.643L115.414 238.446C82.0993 233.238 60.1212 216.002 40.7358 189.482C45.9616 189.363 51.6952 189.476 56.8292 188.319L57.8476 188.07C105.612 175.456 54.7482 113.505 105.815 101.298L115.642 101.147C110.949 108.193 107.368 115.918 105.022 124.052L104.746 125.031C99.0482 145.855 99.3113 181.829 124.477 188.924C131.463 190.943 138.951 190.161 145.357 186.762L145.974 186.424C174.128 170.287 162.359 124.318 149.226 101.113C150.175 101.074 151.125 101.051 152.075 101.046ZM152.567 103.06C158.64 114.741 164.09 130.861 165.091 146.289C166.177 163.021 162.032 179.54 146.975 188.17L146.962 188.178C139.956 192.124 131.657 193.089 123.931 190.86C110.101 186.96 103.43 175.006 100.945 161.905C98.4602 148.801 100.031 134.06 103.089 123.492C105.143 116.369 108.125 109.554 111.95 103.216L106.077 103.306C93.9867 106.245 88.2181 111.997 85.3552 118.995C82.3814 126.264 82.4226 135.111 82.6053 144.493C82.7839 153.664 83.1032 163.387 80.2091 171.578C78.7403 175.735 76.4365 179.54 72.8674 182.723C69.3053 185.899 64.5734 188.376 58.3621 190.016C53.9977 191.168 49.1599 191.349 44.6965 191.427C63.2883 215.858 84.3985 231.56 115.724 236.457C143.272 240.738 171.395 233.99 194 217.677C198.173 214.616 203.955 209.672 209.227 204.346C213.684 199.843 217.636 195.202 219.992 191.283C214.138 191.342 208.411 191.324 202.376 189.154L201.746 188.921C192.856 185.511 187.703 180.135 184.811 173.585C181.97 167.149 181.379 159.72 181.259 152.313C181.137 144.761 181.494 137.333 180.738 130.225C179.99 123.197 178.174 116.86 173.912 111.693C169.005 105.743 160.513 103.128 152.567 103.06ZM131.847 116.735C132.064 116.863 132.695 117.288 132.801 117.475C139.649 129.64 146.107 158.533 133.148 168.502L132.492 168.237C116.724 161.628 126.894 128.236 131.847 116.735ZM130.481 24.8358C137.406 24.1734 150.856 26.0663 157.636 27.6949C185.273 34.551 209.122 51.9639 224.067 76.1988C242.662 106.693 242.563 133.446 234.487 166.707L227.821 166.665C197.825 166.385 207.6 164.414 205.941 132.334L205.847 130.677C205.391 123.365 202.229 112.109 198.809 105.431L198.477 104.799C192.219 93.0762 181.527 84.3454 168.79 80.5566C155.576 76.6333 144.567 77.9983 132.643 84.4381L132.314 84.3466C131.702 84.1469 130.799 83.7309 130.073 83.3823L129.315 83.0146C112.299 74.6872 91.1323 78.3712 76.6884 90.3971L76.0116 90.973C61.9407 103.172 57.5501 122.446 56.4164 140.377L56.3956 140.835C56.2288 145.927 57.6723 161.878 55.7495 164.722C51.225 167.349 36.1437 167.255 30.0908 167.487C27.0051 157.137 25.0643 146.988 24.6692 136.182C23.5328 108.021 33.6809 80.571 52.862 59.9199C74.1519 37.1169 99.4695 25.9182 130.481 24.8358ZM132.325 120.952C130.05 127.001 127.358 136 126.399 144.545C125.817 149.732 125.894 154.592 126.981 158.477C128 162.119 129.856 164.755 132.795 166.166C137.699 161.645 139.192 153.322 138.397 143.983C137.677 135.53 135.127 126.885 132.325 120.952ZM143.88 27.4048C138.832 26.814 133.913 26.529 130.673 26.8388L130.611 26.8441L130.551 26.8467C100.059 27.911 75.25 38.89 54.3335 61.2929L54.3322 61.2916C35.8119 81.233 25.8782 107.637 26.6356 134.806L26.6801 136.1V136.108C27.049 146.199 28.7926 155.723 31.5864 165.429C34.7195 165.344 39.0705 165.276 43.3615 164.994C45.8764 164.83 48.2979 164.593 50.3456 164.245C52.0582 163.954 53.3568 163.604 54.213 163.236C54.2606 163.076 54.3133 162.877 54.361 162.632C54.4847 161.998 54.5789 161.174 54.6427 160.184C54.7702 158.206 54.7664 155.748 54.7082 153.184C54.6501 150.623 54.5405 148.025 54.4606 145.74C54.3825 143.507 54.3294 141.496 54.4082 140.249C55.5678 121.908 60.1247 101.57 75.4011 88.8507C90.3809 76.3787 112.389 72.4915 130.2 81.2076C130.614 81.4104 131.226 81.7107 131.825 81.9806C132.054 82.0834 132.272 82.1747 132.467 82.2544C144.549 75.9287 155.908 74.6328 169.363 78.628C182.614 82.5695 193.736 91.6509 200.249 103.845L200.593 104.5C204.145 111.428 207.382 122.96 207.855 130.552C208.421 139.649 208.07 146.473 207.841 151.521C207.725 154.065 207.645 156.077 207.712 157.726C207.78 159.383 207.992 160.48 208.344 161.252C208.914 162.501 210.125 163.491 214.292 164.051C218.219 164.579 224.067 164.638 232.898 164.685C240.522 132.466 240.287 106.668 222.354 77.2551L221.66 76.1454C206.955 52.9413 183.862 36.2769 157.167 29.6503C153.872 28.8589 148.896 27.9919 143.88 27.4048Z" fill="#3297D7"/>
</svg>
