<svg width="1200" height="1200" viewBox="0 0 1200 1200" fill="none" xmlns="http://www.w3.org/2000/svg">
<path d="M653.567 883.486V951.125H626.702V883.486C626.702 868.625 614.508 856.431 599.646 856.431C584.785 856.431 572.591 868.625 572.591 883.486V951.125H545.535V829.566H572.591V836.806C580.593 832.233 589.739 829.566 599.646 829.566C629.369 829.566 653.567 853.763 653.567 883.486Z" fill="white"/>
<path d="M478.662 829.566C512.196 829.566 539.442 856.812 539.442 890.346C539.442 893.013 539.252 895.871 538.87 898.539C507.814 898.539 476.757 898.539 445.891 898.539C449.511 913.209 462.848 924.07 478.662 924.07C486.855 924.07 494.477 921.021 500.383 916.067H533.536C523.818 936.835 502.86 951.125 478.662 951.125C445.129 951.125 417.883 923.879 417.883 890.346C417.883 856.812 445.129 829.566 478.662 829.566ZM447.034 878.342H510.1C505.337 865.576 492.952 856.431 478.662 856.431C464.182 856.431 451.797 865.576 447.034 878.342Z" fill="white"/>
<path d="M290.227 999.139V829.566H317.282V839.855C326.809 833.377 338.431 829.566 351.006 829.566C384.54 829.566 411.786 856.812 411.786 890.346C411.786 923.879 384.54 951.125 351.006 951.125C338.431 951.125 326.809 947.315 317.282 940.837V999.139H290.227ZM351.006 856.621C332.334 856.621 317.282 871.674 317.282 890.346C317.282 909.018 332.334 924.07 351.006 924.07C369.678 924.07 384.73 909.018 384.73 890.346C384.73 871.674 369.678 856.621 351.006 856.621Z" fill="white"/>
<path d="M204.546 795.271C247.416 795.271 282.283 830.139 282.283 873.009C282.283 915.878 247.416 950.555 204.546 950.555C161.677 950.555 127 915.878 127 873.009C127 830.139 161.677 795.271 204.546 795.271ZM204.546 822.327C176.538 822.327 153.865 845 153.865 873.009C153.865 900.826 176.538 923.5 204.546 923.5C232.555 923.5 255.228 900.826 255.228 873.009C255.228 845 232.555 822.327 204.546 822.327Z" fill="white"/>
<path d="M945.91 951.125H918.854V941.027C909.137 947.505 897.705 951.125 885.13 951.125C851.597 951.125 824.351 924.069 824.351 890.345C824.351 856.812 851.597 829.565 885.13 829.565C897.705 829.565 909.137 833.186 918.854 839.664V829.565H945.91V951.125ZM885.13 856.621C866.458 856.621 851.406 871.864 851.406 890.345C851.406 909.017 866.458 924.26 885.13 924.26C903.802 924.26 918.854 909.017 918.854 890.345C918.854 871.864 903.802 856.621 885.13 856.621Z" fill="white"/>
<path d="M945.91 829.565H918.854V839.664C909.289 833.287 898.062 829.679 885.719 829.568L885.13 829.565C851.597 829.565 824.351 856.812 824.351 890.345L824.356 891.134C824.773 924.228 851.434 950.705 884.345 951.12L885.13 951.125C897.705 951.125 909.137 947.505 918.854 941.027V951.125H945.91V829.565ZM916.949 890.345C916.949 872.909 902.743 858.526 885.13 858.526C867.518 858.526 853.311 872.909 853.311 890.345C853.311 907.979 867.525 922.354 885.13 922.354L885.13 924.26L884.693 924.257C866.369 924.023 851.64 909.109 851.409 890.782L851.406 890.345C851.406 871.864 866.458 856.621 885.13 856.621L885.567 856.624C904.037 856.859 918.854 872.008 918.854 890.345L918.852 890.782C918.619 909.254 903.656 924.26 885.13 924.26L885.13 922.354C902.736 922.354 916.949 907.979 916.949 890.345ZM947.815 953.03H916.949V944.47C907.587 949.985 896.83 953.03 885.13 953.03C850.548 953.03 822.445 925.126 822.445 890.345C822.445 855.759 850.545 827.66 885.13 827.66C896.83 827.66 907.587 830.705 916.949 836.22V827.66H947.815V953.03Z" fill="white"/>
<path d="M668.112 797.177H690.595L740.705 900.263L790.815 797.177H813.297V950.555H786.433V876.057L755.376 935.321H726.034L695.168 876.248V950.555H668.112V797.177Z" fill="white"/>
<path d="M813.297 797.177H790.815L740.705 900.263L690.595 797.177H668.112V950.555H695.168V876.248L726.034 935.321H755.376L786.433 876.057V950.555H813.297V797.177ZM815.203 952.46H784.527V884.981L756.611 937.227H724.797L697.073 885.199V952.46H666.207V795.271H691.836L740.705 895.555L789.574 795.271H815.203V952.46Z" fill="white"/>
<path d="M1017.08 868.672L1046.67 829.248H1078.71L1033.1 890.018L1079.01 951.188H1046.97L1017.08 911.364L987.201 951.188H955.162L1001.06 890.018L955.461 829.248H987.5L1017.08 868.672Z" fill="white"/>
<path d="M988.414 827.025L1017.42 865.655L1046.43 827.025H1082.53L1035.47 889.7L1082.84 952.776H1046.73L1017.42 913.743L988.112 952.776H952.004L999.365 889.7L952.305 827.025H988.414ZM1003.23 889.7L958.193 949.679H986.574L1017.42 908.598L1048.26 949.679H1076.65L1031.61 889.7L1076.35 830.122H1047.96L1017.42 870.801L986.876 830.122H958.494L1003.23 889.7Z" fill="white"/>
<path d="M587.34 161.184C741.448 155.65 871.026 275.756 877.184 429.839C883.344 583.922 763.765 713.987 609.708 720.773C454.763 727.598 323.785 607.18 317.591 452.209C311.395 297.237 432.344 166.749 587.34 161.184ZM377.757 516.942C390.776 516.443 423.214 516.644 432.946 510.994C437.215 504.679 433.768 468.321 434.38 458.627C436.857 419.444 446.563 377.281 477.983 351.119C509.05 325.25 554.578 317.326 591.178 335.239C592.934 336.098 596.692 337.949 598.334 338.301C623.984 324.448 647.662 321.512 676.083 329.951C703.48 338.101 726.476 356.881 739.938 382.098C747.563 396.249 754.777 421.526 755.788 437.762C760.597 515.015 734.271 514.842 817.39 515.265C834.761 443.718 834.973 386.171 794.978 320.577C762.832 268.447 711.537 230.991 652.093 216.244C637.509 212.74 608.581 208.669 593.684 210.094C526.983 212.422 472.527 236.511 426.735 285.561C385.479 329.982 363.651 389.029 366.096 449.603C366.945 472.847 371.12 494.678 377.757 516.942ZM540.631 374.567C430.792 400.826 540.195 534.085 437.459 561.218C425.874 564.276 412.643 563.981 400.653 564.255C442.349 621.3 489.621 658.375 561.277 669.577C621.665 678.963 683.319 664.166 732.868 628.394C751.228 614.926 783.282 585.236 792.669 565.286L791.127 563.739L789.029 563.773C774.853 563.917 762.086 564.208 748.519 559.005C676.163 531.251 730.133 442.303 690.438 394.174C678.524 379.727 658.216 373.944 640.132 374.025C638.088 374.036 636.045 374.085 634.003 374.17C662.252 424.084 687.564 522.966 627.01 557.677C612.943 565.6 596.282 567.538 580.771 563.054C525.783 547.55 526.073 467.939 538.925 423.511C543.971 406.015 551.674 389.398 561.767 374.242L540.631 374.567ZM599.422 519.125C627.294 497.683 613.406 435.532 598.674 409.365C598.447 408.961 597.089 408.048 596.624 407.773C585.97 432.512 564.096 504.339 598.011 518.554C598.48 518.749 598.95 518.94 599.422 519.125Z" fill="white"/>
</svg>
