<svg width="1200" height="1200" viewBox="0 0 1200 1200" fill="none" xmlns="http://www.w3.org/2000/svg">
<path d="M653.567 883.485V951.124H626.702V883.485C626.702 868.624 614.508 856.429 599.646 856.429C584.785 856.429 572.591 868.624 572.591 883.485V951.124H545.535V829.564H572.591V836.805C580.593 832.232 589.739 829.564 599.646 829.564C629.369 829.564 653.567 853.762 653.567 883.485Z" fill="black"/>
<path d="M478.662 829.564C512.196 829.564 539.442 856.811 539.442 890.344C539.442 893.012 539.252 895.87 538.87 898.537C507.814 898.537 476.757 898.537 445.891 898.537C449.511 913.208 462.848 924.068 478.662 924.068C486.855 924.068 494.477 921.02 500.383 916.066H533.536C523.818 936.834 502.86 951.124 478.662 951.124C445.129 951.124 417.883 923.878 417.883 890.344C417.883 856.811 445.129 829.564 478.662 829.564ZM447.034 878.341H510.1C505.337 865.575 492.952 856.429 478.662 856.429C464.182 856.429 451.797 865.575 447.034 878.341Z" fill="black"/>
<path d="M290.227 999.138V829.564H317.282V839.853C326.809 833.375 338.431 829.564 351.006 829.564C384.54 829.564 411.786 856.811 411.786 890.344C411.786 923.878 384.54 951.124 351.006 951.124C338.431 951.124 326.809 947.313 317.282 940.835V999.138H290.227ZM351.006 856.62C332.334 856.62 317.282 871.672 317.282 890.344C317.282 909.016 332.334 924.068 351.006 924.068C369.678 924.068 384.73 909.016 384.73 890.344C384.73 871.672 369.678 856.62 351.006 856.62Z" fill="black"/>
<path d="M204.546 795.27C247.416 795.27 282.283 830.137 282.283 873.007C282.283 915.876 247.416 950.553 204.546 950.553C161.677 950.553 127 915.876 127 873.007C127 830.137 161.677 795.27 204.546 795.27ZM204.546 822.325C176.538 822.325 153.865 844.998 153.865 873.007C153.865 900.824 176.538 923.498 204.546 923.498C232.555 923.498 255.228 900.824 255.228 873.007C255.228 844.998 232.555 822.325 204.546 822.325Z" fill="black"/>
<path d="M945.91 951.123H918.854V941.025C909.137 947.503 897.705 951.123 885.13 951.123C851.597 951.123 824.351 924.067 824.351 890.343C824.351 856.81 851.597 829.564 885.13 829.564C897.705 829.564 909.137 833.184 918.854 839.662V829.564H945.91V951.123ZM885.13 856.619C866.458 856.619 851.406 871.862 851.406 890.343C851.406 909.015 866.458 924.258 885.13 924.258C903.802 924.258 918.854 909.015 918.854 890.343C918.854 871.862 903.802 856.619 885.13 856.619Z" fill="black"/>
<path d="M945.91 829.564H918.854V839.662C909.289 833.285 898.062 829.677 885.719 829.566L885.13 829.564C851.597 829.564 824.351 856.81 824.351 890.343L824.356 891.132C824.773 924.226 851.434 950.703 884.345 951.118L885.13 951.123C897.705 951.123 909.137 947.503 918.854 941.025V951.123H945.91V829.564ZM916.949 890.343C916.949 872.907 902.743 858.524 885.13 858.524C867.518 858.524 853.311 872.907 853.311 890.343C853.311 907.977 867.525 922.352 885.13 922.352L885.13 924.258L884.693 924.255C866.369 924.021 851.64 909.107 851.409 890.78L851.406 890.343C851.406 871.862 866.458 856.619 885.13 856.619L885.567 856.622C904.037 856.857 918.854 872.006 918.854 890.343L918.852 890.78C918.619 909.252 903.656 924.258 885.13 924.258L885.13 922.352C902.736 922.352 916.949 907.977 916.949 890.343ZM947.815 953.029H916.949V944.468C907.587 949.983 896.83 953.029 885.13 953.029C850.548 953.029 822.445 925.124 822.445 890.343C822.445 855.757 850.545 827.658 885.13 827.658C896.83 827.658 907.587 830.703 916.949 836.218V827.658H947.815V953.029Z" fill="black"/>
<path d="M668.112 797.175H690.595L740.705 900.261L790.815 797.175H813.297V950.553H786.433V876.055L755.376 935.319H726.034L695.168 876.246V950.553H668.112V797.175Z" fill="black"/>
<path d="M813.297 797.175H790.815L740.705 900.261L690.595 797.175H668.112V950.553H695.168V876.246L726.034 935.319H755.376L786.433 876.055V950.553H813.297V797.175ZM815.203 952.458H784.527V884.979L756.611 937.225H724.797L697.073 885.197V952.458H666.207V795.27H691.836L740.705 895.553L789.574 795.27H815.203V952.458Z" fill="black"/>
<path d="M1017.08 868.671L1046.67 829.247H1078.71L1033.1 890.018L1079.01 951.188H1046.97L1017.08 911.364L987.201 951.188H955.162L1001.06 890.018L955.461 829.247H987.5L1017.08 868.671Z" fill="black"/>
<path d="M988.414 827.024L1017.42 865.655L1046.43 827.024H1082.53L1035.47 889.699L1082.84 952.776H1046.73L1017.42 913.742L988.112 952.776H952.004L999.365 889.699L952.305 827.024H988.414ZM1003.23 889.699L958.193 949.678H986.574L1017.42 908.597L1048.26 949.678H1076.65L1031.61 889.699L1076.35 830.122H1047.96L1017.42 870.8L986.876 830.122H958.494L1003.23 889.699Z" fill="black"/>
<path d="M587.34 161.184C741.448 155.65 871.026 275.756 877.184 429.839C883.344 583.922 763.765 713.987 609.708 720.773C454.763 727.598 323.785 607.18 317.591 452.209C311.395 297.237 432.344 166.749 587.34 161.184ZM377.757 516.942C390.776 516.443 423.214 516.644 432.946 510.994C437.215 504.679 433.768 468.321 434.38 458.627C436.857 419.444 446.563 377.281 477.983 351.119C509.05 325.25 554.578 317.326 591.178 335.239C592.934 336.098 596.692 337.949 598.334 338.301C623.984 324.448 647.662 321.512 676.083 329.951C703.48 338.101 726.476 356.881 739.938 382.098C747.563 396.249 754.777 421.526 755.788 437.762C760.597 515.015 734.271 514.842 817.39 515.265C834.761 443.718 834.973 386.171 794.978 320.577C762.832 268.447 711.537 230.991 652.093 216.244C637.509 212.74 608.581 208.669 593.684 210.094C526.983 212.422 472.527 236.511 426.735 285.561C385.479 329.982 363.651 389.029 366.096 449.603C366.945 472.847 371.12 494.678 377.757 516.942ZM540.631 374.567C430.792 400.826 540.195 534.085 437.459 561.218C425.874 564.276 412.643 563.981 400.653 564.255C442.349 621.3 489.621 658.375 561.277 669.577C621.665 678.963 683.319 664.166 732.868 628.394C751.228 614.926 783.282 585.236 792.669 565.286L791.127 563.739L789.029 563.773C774.853 563.917 762.086 564.208 748.519 559.005C676.163 531.251 730.133 442.303 690.438 394.174C678.524 379.727 658.216 373.944 640.132 374.025C638.088 374.036 636.045 374.085 634.003 374.17C662.252 424.084 687.564 522.966 627.01 557.677C612.943 565.6 596.282 567.538 580.771 563.054C525.783 547.55 526.073 467.939 538.925 423.511C543.971 406.015 551.674 389.398 561.767 374.242L540.631 374.567ZM599.422 519.125C627.294 497.683 613.406 435.532 598.674 409.365C598.447 408.961 597.089 408.048 596.624 407.773C585.97 432.512 564.096 504.339 598.011 518.554C598.48 518.749 598.95 518.94 599.422 519.125Z" fill="#3297D7"/>
</svg>
