<svg width="1200" height="1200" viewBox="0 0 1200 1200" fill="none" xmlns="http://www.w3.org/2000/svg">
<path d="M583.889 151.295C830.991 142.421 1038.76 335.003 1048.63 582.065C1058.51 829.127 866.776 1037.68 619.755 1048.56C371.312 1059.5 161.297 866.418 151.365 617.933C141.431 369.446 335.365 160.218 583.889 151.295ZM247.837 721.728C268.712 720.929 320.725 721.251 336.329 712.191C343.175 702.066 337.647 643.768 338.629 628.224C342.601 565.397 358.163 497.791 408.543 455.842C458.358 414.364 531.358 401.658 590.043 430.379C592.86 431.757 598.885 434.726 601.518 435.289C642.645 413.078 680.612 408.37 726.183 421.901C770.113 434.969 806.985 465.082 828.57 505.515C840.797 528.206 852.364 568.735 853.986 594.769C861.696 718.639 819.484 718.361 952.76 719.04C980.612 604.318 980.953 512.046 916.823 406.871C865.28 323.284 783.031 263.226 687.718 239.579C664.333 233.962 617.948 227.434 594.062 229.718C487.111 233.451 399.795 272.076 326.371 350.725C260.219 421.951 225.22 516.628 229.139 613.755C230.501 651.025 237.195 686.029 247.837 721.728ZM508.995 493.44C332.876 535.544 508.295 749.215 343.565 792.721C324.99 797.625 303.774 797.151 284.549 797.591C351.406 889.059 427.205 948.506 542.099 966.468C638.928 981.517 737.786 957.791 817.234 900.434C846.674 878.839 898.07 831.233 913.122 799.245L910.648 796.763L907.285 796.818C884.554 797.049 864.083 797.515 842.33 789.174C726.311 744.672 812.848 602.049 749.201 524.878C730.097 501.713 697.534 492.442 668.537 492.57C665.26 492.588 661.985 492.667 658.71 492.803C704.005 572.838 744.593 731.387 647.497 787.044C624.943 799.748 598.228 802.855 573.357 795.666C485.188 770.806 485.651 643.155 506.259 571.918C514.35 543.864 526.702 517.22 542.885 492.918L508.995 493.44ZM603.263 725.228C647.953 690.847 625.684 591.192 602.063 549.235C601.699 548.588 599.522 547.124 598.775 546.683C581.694 586.351 546.619 701.521 601 724.313C601.752 724.625 602.506 724.932 603.263 725.228Z" fill="#3297D7"/>
</svg>
